<svg xmlns="http://www.w3.org/2000/svg" width="1924" height="1000"><defs><linearGradient id="linear-gradient" x1=".815" y1=".544" x2=".185" y2=".456" gradientUnits="objectBoundingBox"><stop offset="0" stop-color="#593087"/><stop offset=".33" stop-color="#4139ae"/><stop offset=".33" stop-color="#593087"/><stop offset=".66" stop-color="#4139ae"/><stop offset=".66" stop-color="#593087"/><stop offset="1" stop-color="#4139ae"/></linearGradient><clipPath id="clip-path"><path id="bg" transform="translate(-2)" fill="#0f59c8" d="M0 0h1924v1000H0z"/></clipPath></defs><g id="bg-2" data-name="bg" transform="translate(2)"><path id="BG-3" data-name="BG" d="M2906 0v476.761S3192.754 1000 3376 1000s1450-463.919 1450-463.919V0z" transform="translate(-2906)" fill="#3c368c"/><path id="Path_4692" data-name="Path 4692" d="M3790.134 156.5s-268.68 166.835 38.074 297.413c47.02 36.176 221.222 17.743 188.06 198.064s82.17 241.607 273.493 233.023c216.019-74.518 543.311-192.405 543.311-192.405V156.5z" transform="translate(-2913.071 -156.5)" opacity=".36" fill="url(#linear-gradient)"/><path id="Rectangle_809" data-name="Rectangle 809" transform="rotate(-45 350.914 -20.21)" fill="#fff" opacity=".02" d="M0 0h180.969v180.969H0z"/><path id="Rectangle_807" data-name="Rectangle 807" transform="rotate(-45 431.856 13.317)" fill="#fff" opacity=".02" d="M0 0h180.969v180.969H0z"/><path id="Rectangle_808" data-name="Rectangle 808" transform="rotate(-45 346.578 107.519)" fill="#fff" opacity=".02" d="M0 0h180.969v180.969H0z"/></g></svg>